PathFileType	4	(X/Y/Z)	Kaydara																																																																																																																									
DataRate	CameraRate	NumFrames	NumMarkers	Units	OrigDataRate	OrigDataStartFrame	OrigNumFrames																																																																																																																					
30	30	9	41	mm	30	1	354																																																																																																																					
Frame#	Time	SALE_LFHD			SALE_RFHD			SALE_LBHD			SALE_RBHD			SALE_LFTShould			SALE_RFTShould			SALE_LRRShould			SALE_RRRShould			SALE_T10			SALE_STRN			SALE_TRUN			SALE_LSHO			SALE_LUPA			SALE_LELB			SALE_LFRM			SALE_LWRA			SALE_LWRB			SALE_LFIN			SALE_RSHO			SALE_RUPA			SALE_RELB			SALE_RFRM			SALE_RWRB			SALE_RFIN			SALE_LFWT			SALE_RFWT			SALE_LBWT			SALE_RBWT			SALE_LTHI			SALE_LKNE			SALE_RWRA			SALE_LSHN			SALE_LANK			SALE_LHEE			SALE_LTOE			SALE_RTHI			SALE_RKNE			SALE_RSHN			SALE_RANK			SALE_RHEE			SALE_RTOE		
		X1	Y1	Z1	X2	Y2	Z2	X3	Y3	Z3	X4	Y4	Z4	X5	Y5	Z5	X6	Y6	Z6	X7	Y7	Z7	X8	Y8	Z8	X9	Y9	Z9	X10	Y10	Z10	X11	Y11	Z11	X12	Y12	Z12	X13	Y13	Z13	X14	Y14	Z14	X15	Y15	Z15	X16	Y16	Z16	X17	Y17	Z17	X18	Y18	Z18	X19	Y19	Z19	X20	Y20	Z20	X21	Y21	Z21	X22	Y22	Z22	X23	Y23	Z23	X24	Y24	Z24	X25	Y25	Z25	X26	Y26	Z26	X27	Y27	Z27	X28	Y28	Z28	X29	Y29	Z29	X30	Y30	Z30	X31	Y31	Z31	X32	Y32	Z32	X33	Y33	Z33	X34	Y34	Z34	X35	Y35	Z35	X36	Y36	Z36	X37	Y37	Z37	X38	Y38	Z38	X39	Y39	Z39	X40	Y40	Z40	X41	Y41	Z41
																																																																																																																												
1	0.01	177.52134	1651.53595	-1953.1044	88.72926	1645.95154	-2048.33206	271.94218	1638.63678	-2044.74762	181.92526	1634.4606	-2132.77863	261.19785	1387.93457	-2025.87097	119.61386	1387.96158	-2022.7301	253.1418	1444.37057	-2138.13477	102.38145	1453.19168	-2127.6355	171.97586	1295.87921	-2205.37521	185.34216	1314.57748	-1978.31833	182.11637	1227.91992	-1938.84384	374.72359	1408.83041	-2096.87057	410.17708	1189.75792	-2104.57275	392.68578	1080.67322	-2120.58426	418.50166	976.10527	-2084.36371	352.86716	844.25858	-2012.6181	418.50304	833.04688	-2049.46457	414.51607	793.21182	-1998.83575	10.361	1419.79279	-2080.71503	-34.03079	1190.97092	-2141.67358	-58.42301	1090.95009	-2093.12775	-55.49071	977.78488	-2103.01117	-67.88941	840.18555	-2053.6731	-69.52033	802.31659	-1998.51532	301.71703	976.35818	-1992.38251	22.94297	976.70326	-2008.57513	252.39422	1038.76915	-2163.54462	74.09201	1044.24927	-2172.50275	301.50238	674.98589	-2157.49603	286.98772	505.20897	-2080.49652	-14.45578	851.72752	-2006.89606	279.4014	307.13551	-2083.31085	273.09452	123.41271	-2132.30133	234.16508	75.07971	-2194.90921	245.50745	86.37389	-1997.96753	17.42057	721.46034	-2162.83478	37.34056	563.6248	-2059.02374	89.62236	375.04517	-2075.33173	42.5737	124.5915	-2129.22211	54.65513	78.24946	-2007.3526	88.99015	62.24891	-2198.02216
2	0.043	169.5853	1651.75293	-1955.07111	87.91936	1645.38177	-2056.0083	270.76328	1638.62213	-2039.2865	187.03856	1633.5582	-2133.58597	261.16989	1387.60559	-2024.42932	119.24912	1388.25439	-2023.10547	254.29243	1444.59778	-2136.82327	103.56569	1453.47733	-2127.55112	173.25352	1296.28235	-2205.1001	185.41443	1314.35745	-1977.81876	181.91563	1227.49664	-1938.67584	375.29125	1408.79501	-2095.36301	410.68821	1189.50417	-2103.30414	393.00312	1080.58311	-2120.07904	418.27648	975.70381	-2084.48456	352.2123	843.38211	-2014.43573	417.78881	832.38625	-2050.81696	413.41381	792.20383	-2000.52246	11.32892	1420.12634	-2081.13632	-33.55701	1191.4859	-2142.39334	-58.33009	1091.36345	-2093.61954	-55.60518	978.16368	-2103.28201	-68.35414	840.71999	-2053.5997	-69.94367	803.0204	-1998.31909	301.25481	976.21254	-1992.29248	22.38557	976.84174	-2008.96835	252.30877	1038.6747	-2163.55423	74.05055	1044.24454	-2172.84775	301.34235	675.02472	-2157.34329	286.70856	505.1363	-2080.21851	-14.85941	852.28935	-2006.85806	279.25056	307.07846	-2083.24631	273.0673	123.29975	-2132.43942	234.21034	75.0897	-2194.93088	245.42833	86.39904	-1997.9718	17.16181	721.42929	-2163.08411	37.14745	563.68076	-2059.16901	89.49982	375.04337	-2075.38055	42.59191	124.56889	-2129.26071	54.59975	78.25766	-2007.32849	88.75175	62.84341	-2198.21716
3	0.077	163.92292	1651.93359	-1956.58035	86.78601	1644.64584	-2060.82047	268.97224	1639.12704	-2036.37848	189.27111	1632.98874	-2134.05792	260.71079	1387.51465	-2023.57376	119.95126	1388.10623	-2022.57721	255.19192	1444.80927	-2135.68573	104.47437	1453.5051	-2127.50427	174.54971	1296.48178	-2204.89746	184.93992	1314.22134	-1977.14645	181.08229	1227.29103	-1938.38364	375.91072	1408.6087	-2092.4501	411.16077	1189.51965	-2101.34796	393.33138	1080.72746	-2118.96378	418.19611	975.65376	-2084.17435	351.47442	842.56813	-2016.34033	417.20772	831.89003	-2051.91574	412.19158	791.22391	-2002.27081	11.85579	1420.24399	-2082.04865	-33.02039	1191.51222	-2143.27667	-58.16455	1091.5873	-2094.47144	-55.60806	978.3712	-2103.91388	-68.69814	841.06987	-2053.90305	-70.49667	803.43468	-1998.50739	300.71276	976.11473	-1991.9603	21.76967	976.98631	-2009.28238	252.29868	1038.58757	-2163.29529	74.13073	1044.25156	-2173.23151	301.21792	675.00648	-2156.95618	286.3909	505.09254	-2079.94324	-15.32493	852.70119	-2007.01752	279.19811	307.02627	-2083.13828	273.13374	123.41039	-2132.23465	234.26256	75.09883	-2194.944	245.35702	86.40202	-1997.99133	17.0742	721.42242	-2163.5231	36.85523	563.74561	-2059.50989	89.3235	375.01675	-2075.34973	42.61536	124.60464	-2129.37653	54.52913	78.28575	-2007.35779	89.08806	62.27446	-2198.00507
4	0.11	160.31044	1652.03461	-1957.64603	85.37362	1643.81927	-2063.30353	267.23179	1639.67499	-2035.28946	189.35383	1632.56012	-2134.50775	260.05787	1387.3407	-2022.11136	119.58034	1388.04901	-2022.70096	255.67577	1444.91104	-2134.73877	104.93067	1453.508	-2127.74506	175.60516	1296.58981	-2204.68964	184.15504	1314.23187	-1976.73584	180.12232	1227.28256	-1938.2074	375.86723	1408.70895	-2090.18555	411.34129	1189.66248	-2099.27582	393.4938	1080.9745	-2117.44537	418.03856	975.75485	-2083.42072	350.83351	842.03415	-2017.87048	416.92253	831.75781	-2052.86469	411.14269	790.30655	-2003.65234	11.91174	1420.20752	-2083.08136	-32.43831	1191.39442	-2144.55368	-58.08757	1091.55373	-2095.77957	-55.50169	978.31688	-2104.91531	-68.9693	841.13243	-2054.70535	-71.11536	803.61526	-1999.2041	299.93412	975.98442	-1991.23428	21.05456	977.09175	-2009.95285	252.46304	1038.55247	-2162.83722	74.34709	1044.25293	-2173.70895	301.25544	675.06302	-2156.3884	285.97906	505.00603	-2079.53644	-15.91384	852.86156	-2007.50717	278.97049	307.07737	-2082.81738	273.11005	123.35886	-2132.25296	234.28549	75.13022	-2194.96704	245.23241	86.42267	-1997.95807	17.18685	721.47812	-2164.095	36.56282	563.79845	-2059.86115	89.20879	375.07248	-2075.4509	42.67013	124.63751	-2129.44061	54.53332	78.29846	-2007.39532	89.13014	62.2471	-2198.01788
5	0.143	158.63123	1652.25571	-1958.19244	83.9143	1643.28476	-2064.06326	265.59607	1640.16296	-2035.3952	188.21194	1632.29965	-2134.81674	259.63625	1387.7301	-2021.5419	118.94663	1387.97226	-2022.82227	255.78606	1444.96857	-2134.01596	104.98265	1453.36533	-2128.00232	176.34312	1296.56219	-2204.51584	183.27026	1314.24393	-1976.51825	179.10147	1227.20741	-1937.9837	375.78892	1409.08554	-2088.80325	411.17348	1189.83093	-2097.41089	393.41717	1081.2252	-2115.88287	417.90691	975.98808	-2082.51892	350.52155	841.55243	-2018.47351	416.85738	831.689	-2053.29758	410.69355	789.71222	-2004.51736	11.69734	1420.02228	-2083.97644	-31.80586	1191.16081	-2145.8226	-58.1272	1091.41312	-2097.43866	-55.50225	978.09807	-2106.39984	-69.09734	840.87646	-2055.979	-71.76293	803.52501	-2000.50247	299.27048	976.01646	-1990.51437	20.36458	977.17201	-2010.42313	252.77451	1038.48557	-2162.2728	74.65464	1044.22707	-2174.18686	301.31809	675.00916	-2155.54398	285.55176	504.9012	-2078.90854	-16.61214	852.68478	-2008.4433	278.75162	307.07157	-2082.37991	273.12067	123.39139	-2132.12341	234.38087	75.13691	-2194.94308	245.11854	86.43668	-1997.97684	17.4428	721.44287	-2164.65134	36.30053	563.80585	-2060.19836	89.19477	375.13035	-2075.59555	42.70009	124.64016	-2129.51813	54.56706	78.37446	-2007.50275	89.14972	62.19054	-2198.0513
6	0.177	157.78	1652.39136	-1958.3226	82.68048	1642.95853	-2063.89832	264.51574	1640.39032	-2035.85587	186.76884	1632.02698	-2134.97345	258.88453	1387.82745	-2020.89386	118.03339	1387.7948	-2022.90695	255.50673	1445.00153	-2133.29346	104.66599	1453.2135	-2128.14468	176.68198	1296.50391	-2204.31137	182.22023	1314.10858	-1976.22833	177.86245	1227.15714	-1937.70447	375.40859	1409.28864	-2087.53464	410.88764	1190.01617	-2095.87723	393.20873	1081.45172	-2114.48776	417.79285	976.25671	-2081.49994	350.3883	841.40564	-2018.3345	416.98708	831.83525	-2053.09784	410.7016	789.4812	-2004.54483	11.16367	1419.75403	-2084.75906	-31.67622	1190.93597	-2147.09579	-58.34931	1091.08223	-2099.11835	-55.43945	977.76718	-2108.08441	-69.22435	840.5587	-2057.84515	-72.50934	803.01315	-2002.44308	298.55314	976.05545	-1989.61975	19.65675	977.25494	-2011.06079	253.08924	1038.40828	-2161.61758	75.06782	1044.13414	-2174.63882	301.45939	675.01167	-2154.55811	285.23315	504.92157	-2078.16345	-17.25855	852.54089	-2009.44855	278.58917	307.07626	-2081.99249	273.12462	123.39175	-2131.98029	234.42802	75.19122	-2194.93469	244.99245	86.4261	-1997.97333	17.7116	721.42845	-2165.17624	36.09847	563.83465	-2060.52277	89.06607	375.12783	-2075.70923	42.72565	124.65523	-2129.56924	54.66034	78.42606	-2007.57645	89.17661	62.16142	-2198.11356
7	0.21	157.30349	1652.45621	-1958.10913	81.80426	1642.79465	-2063.32596	263.71054	1640.29999	-2036.04385	185.5607	1631.76392	-2134.86298	258.26862	1387.80029	-2020.16022	117.07048	1387.60895	-2022.94937	255.1165	1445.03738	-2132.75558	104.20004	1453.06335	-2128.16284	176.75291	1296.47186	-2204.07272	181.1767	1314.02084	-1976.03165	176.73599	1227.10304	-1937.5267	374.86362	1409.44504	-2086.4505	410.52097	1190.16739	-2094.74976	393.04684	1081.59767	-2113.36746	417.78893	976.45233	-2080.46051	350.44811	841.45584	-2017.37244	417.22912	832.01225	-2052.1167	411.0453	789.69139	-2003.68088	10.47168	1419.50226	-2085.22659	-31.64928	1190.70557	-2148.1485	-58.6004	1090.72525	-2100.58426	-55.35527	977.40738	-2109.80057	-69.38215	840.21835	-2060.01755	-73.21305	802.29263	-2004.78104	297.71978	976.09787	-1988.60641	18.9795	977.17957	-2011.51566	253.35442	1038.37952	-2160.93353	75.41271	1044.04236	-2174.91211	301.6325	675.05798	-2153.60382	284.94968	504.90623	-2077.44141	-18.31063	852.29202	-2010.72357	278.37067	307.07516	-2081.60568	273.08508	123.4376	-2131.84326	234.45641	75.2238	-2194.95071	244.84173	86.40962	-1997.9425	17.925	721.34941	-2165.64941	35.89752	563.80424	-2060.94513	89.00843	375.17307	-2075.90988	42.73499	124.64286	-2129.60846	54.72157	78.46574	-2007.63275	89.20757	62.12811	-2198.11279
8	0.243	156.75507	1652.38174	-1957.71667	81.13603	1642.80151	-2062.76367	263.18264	1640.2774	-2035.98221	184.71388	1631.63132	-2134.52621	257.37123	1387.73117	-2019.62494	116.10575	1387.53464	-2022.83508	254.56589	1445.02563	-2132.21695	103.61756	1452.93915	-2128.1105	176.62901	1296.37665	-2203.76572	180.20588	1313.93951	-1975.84702	175.65754	1226.98502	-1937.26913	374.22512	1409.56619	-2085.56946	410.2763	1190.39444	-2093.88474	393.0402	1081.75201	-2112.46063	417.89478	976.67336	-2079.15817	350.5043	841.73569	-2015.61768	417.49989	832.28783	-2050.30853	411.381	790.21484	-2001.76331	9.84662	1419.29153	-2085.56595	-31.72417	1190.57129	-2148.86581	-58.75175	1090.35988	-2101.71188	-54.97845	977.05681	-2111.02661	-69.60232	839.90204	-2062.0636	-73.8754	801.64001	-2006.86523	297.05877	976.12953	-1987.68326	18.32909	977.08046	-2011.72577	253.48579	1038.41591	-2160.13626	75.61653	1044.00421	-2174.98306	301.67086	675.04227	-2152.81052	284.72103	505.00401	-2076.85806	-19.13647	851.63353	-2011.96213	278.16271	307.0314	-2081.25717	273.0496	123.48282	-2131.6832	234.50478	75.23333	-2194.92294	244.76616	86.40982	-1997.95288	18.08325	721.33347	-2166.04492	35.62235	563.71948	-2061.30951	88.8668	375.22606	-2076.18927	42.71714	124.60464	-2129.67743	54.71337	78.48859	-2007.67029	89.18586	62.07974	-2198.13919
9	0.277	156.22807	1652.39243	-1957.21786	80.52324	1642.79419	-2062.26807	262.50294	1640.04257	-2035.38284	184.10246	1631.58768	-2133.9856	256.66672	1387.70462	-2019.08188	115.42128	1387.44186	-2022.66327	253.9686	1444.99268	-2131.67648	103.04944	1452.85065	-2127.98615	176.35311	1296.31943	-2203.42819	179.22659	1313.9296	-1975.48416	174.68746	1227.04704	-1936.85623	373.33912	1409.45526	-2084.5459	410.028	1190.50438	-2092.99759	393.12111	1081.82739	-2111.48636	418.06187	976.8026	-2077.5589	350.59715	842.26997	-2013.32352	417.76794	832.60857	-2047.87491	411.66058	790.85106	-1999.08401	9.09884	1419.19418	-2085.728	-31.85151	1190.35515	-2149.20792	-58.97515	1090.09293	-2102.35291	-54.99283	976.8676	-2112.01004	-69.97488	839.70276	-2063.75031	-74.45511	801.07262	-2008.66547	296.51091	976.15166	-1986.76849	17.74555	977.00897	-2011.6304	253.5058	1038.47801	-2159.39835	75.69092	1044.05609	-2174.89929	301.59939	675.05745	-2152.24503	284.60461	505.13538	-2076.53076	-20.07763	851.45523	-2012.88559	277.94008	307.06106	-2081.01608	272.95048	123.53597	-2131.64581	234.45753	75.24769	-2194.91974	244.71109	86.3891	-1997.93076	18.26117	721.38618	-2166.45554	35.29762	563.69324	-2061.73126	88.63414	375.24662	-2076.41113	42.65338	124.57769	-2129.7287	54.66674	78.53547	-2007.71393	89.17147	62.08696	-2198.14041
